# xmcd CD database file
#
# Track frame offsets:
#	150
#	12766
#	25574
#	38617
#	50953
#	63321
#	74868
#	87371
#	99589
#	110461
#	123672
#	135891
#	147581
#	160786
#	174354
#	188109
#	200403
#	212214
#	223927
#	235548
#
# Disc length: 3296 seconds
#
# Revision: 2
# Processed by: cddbd v1.5.2PL0 Copyright (c) Steve Scherf et al.
# Submitted via: CDex 1.51
#
DISCID=220cde14
DTITLE=Hank Williams - Golden Greats CD1
DYEAR=2003
DGENRE=Country
TTITLE0=Honky Tonkin'
TTITLE1=I'm a long gone daddy
TTITLE2=Jambalaya (on the bayou)
TTITLE3=Lovesick blues
TTITLE4=Move it on over
TTITLE5=My bucket's got a hole in it
TTITLE6=Rootie tootie
TTITLE7=The blues come around
TTITLE8=Why don't you love me
TTITLE9=Mind your own business
TTITLE10=Lost Highway
TTITLE11=Dear John
TTITLE12=Hey good looking
TTITLE13=Beyond the sunset
TTITLE14=Ramblin' man
TTITLE15=Half as much
TTITLE16=You win again
TTITLE17=My son calls another man daddy
TTITLE18=Kaw-liga
TTITLE19=Lost on the river
EXTD=YEAR: 2003
EXTT0=
EXTT1=
EXTT2=
EXTT3=
EXTT4=
EXTT5=
EXTT6=
EXTT7=
EXTT8=
EXTT9=
EXTT10=
EXTT11=
EXTT12=
EXTT13=
EXTT14=
EXTT15=
EXTT16=
EXTT17=
EXTT18=
EXTT19=
PLAYORDER=
